<?xml version="1.0" standalone="no"?>
<!DOCTYPE svg PUBLIC "-//W3C//DTD SVG 20010904//EN"
 "http://www.w3.org/TR/2001/REC-SVG-20010904/DTD/svg10.dtd">
<svg version="1.0" xmlns="http://www.w3.org/2000/svg"
 width="165.000000pt" height="134.000000pt" viewBox="0 0 165.000000 134.000000"
 preserveAspectRatio="xMidYMid meet">

<g transform="translate(0.000000,134.000000) scale(0.100000,-0.100000)"
fill="#000000" stroke="none">
<path d="M222 1109 l-183 -190 23 -28 c13 -16 183 -212 378 -435 248 -285 360
-406 372 -404 14 2 611 633 634 670 4 5 -45 61 -107 124 l-114 114 -298 0
c-196 0 -296 -3 -292 -10 4 -6 111 -10 289 -10 282 0 283 0 304 -23 12 -13 22
-28 22 -33 0 -20 -421 -459 -440 -459 -12 0 -119 110 -305 312 -157 172 -285
316 -285 320 0 4 46 54 102 110 l103 103 390 0 390 -1 180 -199 c161 -180 205
-220 205 -191 0 5 -84 102 -187 215 l-187 206 -406 -1 -405 0 -183 -190z m281
-413 c161 -176 297 -321 303 -323 7 -2 112 103 235 234 122 131 230 239 238
241 9 1 43 -24 76 -57 l59 -61 -25 -27 c-155 -169 -550 -591 -563 -602 -15
-13 -21 -11 -51 20 -54 56 -677 773 -682 786 -7 19 79 114 100 111 10 -2 149
-147 310 -322z"/>
</g>
</svg>
