<svg xmlns="http://www.w3.org/2000/svg" xmlns:xlink="http://www.w3.org/1999/xlink" width="110" height="175" viewBox="0 0 110 175">
    <defs>
        <path id="a" d="M0 0h360v240H0z"/>
    </defs>
    <g fill="none" fill-rule="evenodd" transform="translate(-155 -65)">
        <mask id="b" fill="#fff">
            <use xlink:href="#a"/>
        </mask>
        <g fill="#1C1794" mask="url(#b)">
            <path d="M252.6 124.905c.497 2.882 1.13 5.361 1.849 7.251-3.51.384-9 1.168-14.585 2.691l12.736-9.942zm10.088 13.853l-.026.027c-.804.662-12.102 4.136-19.046 6.173-.485.105-7.105 1.621-11.317 7-2.143 2.737-11.648 9.734-21.188 15.596-12.005 7.378-21.677 11.653-26.535 11.729l.014.949c1.548-.024 3.406-.418 5.435-1.06l3.585 61.975-37.659 1.429c-.05-4.72-.43-42.125.005-53.253.04-1.01.067-2.032.097-3.115.157-5.83.335-12.438 2.53-20.289 2.547-9.11 7.338-18.106 14.647-27.503 17.16-22.064 32.171-61.898 33.543-65.593a2.475 2.475 0 0 1 1.856.723c1.136 1.105 2.206 3.944.854 11.197-2.538 13.616-18.8 42.761-18.964 43.054l.828.464c.03-.053.582-1.042 1.48-2.704 2.546 5.485 1.984 11.934 1.392 15.388-.893 5.22-2.781 9.341-4.019 10.166l.498.746c-8.138 5.187-14.47 10.736-17.481 15.419l.798.513c7.798-12.13 36.795-27.753 48.256-27.837 3.823 8.214 5.114 8.766 5.566 8.96l.374-.874c-2.01-.859-7.595-13.746-10.644-21.667l-.886.34c.02.053 2.02 5.241 4.355 10.517.279.63.545 1.223.802 1.785-5.63.214-15.148 3.712-25.166 9.287-1.94 1.079-3.809 2.19-5.595 3.318 1.57-1.473 3.275-5.817 4.078-10.513.211-1.233.418-2.838.488-4.646 1.216-1.362 14.742-16.407 25.988-24.018 1.476 1.346 3.235 1.81 4.961 1.81 1.46 0 2.897-.332 4.116-.744 1.676-.567 3.071-.817 4.309-.768l-6.02 6.652.704.637 6.468-7.148c.867.18 1.632.503 2.437.845 2.072.88 4.382 1.861 9.344 1.041-4.43 2.867-13.708 9.107-14.577 11.62l.898.31c.821-2.377 12.092-9.841 16.365-12.517a.475.475 0 0 0-.365-.863c-6.469 1.585-9.032.496-11.294-.465-.935-.397-1.817-.772-2.9-.956-1.62-.275-3.423-.048-5.673.713-3.634 1.228-6.454.856-8.383-1.108-.86-.876-1.332-1.876-1.563-2.488 7.643-.116 21.017-2.196 27.54-3.21l1.663-.258c.87-.133 1.853-.28 2.8-.398-.442 1.371-.885 3.328-.933 5.752-.081 4.052.246 8.75.897 12.939l-14.675 11.456c-2.234-3.371-12.02-13.654-12.456-14.113l-.688.655c.106.11 10.055 10.566 12.294 13.892-1.098.355-2.187.74-3.252 1.16l.348.883c7.447-2.936 16.11-4.197 20.828-4.699.417.939.856 1.688 1.31 2.226l.726-.612c-.351-.417-.7-.994-1.038-1.715 1.548-.15 2.488-.201 2.498-.202l-.051-.947c-.011 0-1.091.06-2.842.233-.8-2.02-1.496-4.805-2.022-8.09-.672-4.204-1.01-8.96-.928-13.046.043-2.152.443-4.342 1.126-6.167.86-2.299 1.83-3.168 2.145-3.104.154.032.566.604.455 2.74-.257 4.936 3.662 16.454 6.254 24.074 1.055 3.102 1.966 5.78 2.017 6.39.159 1.912-.92 3.018-1.786 3.907zm-40.95-73.834c1.373 1.826 2.22 3.14 3.041 4.415 2.062 3.2 4.01 6.222 13.703 16.52 2.992 3.18 4.199 6.605 3.586 10.178-.392 2.29-1.444 3.916-1.758 4.361-3.396.836-7.194 1.638-11.306 2.386a93.831 93.831 0 0 0 2.233-3.752c1.22-2.177 1.843-3.558 2.126-4.466l.217.367.816-.485a463.53 463.53 0 0 1-5.56-9.678c-4.615-8.287-5.74-11.106-5.871-12.01a.475.475 0 0 0-.17-.3c-1.765-1.447-2.773-4.368-1.058-7.536zm28.524 33.498c3.46-1.289 5.913-1.335 7.29-.136 1.702 1.484 1.383 4.59 1.152 5.916a9.58 9.58 0 0 0-1.536-.235c.04-1.978-.371-3.072-1.227-3.25-1.201-.25-2.379 1.56-3.122 3.43-1.09.127-2.227.294-3.301.459l-1.667.258c-6.147.956-20.52 3.19-27.976 3.203-1.255-.31-1.451-1.891-1.473-2.63 1.21-.163 4.979-.689 9.705-1.527 4.61-.818 8.85-1.703 12.6-2.631 3.736-.925 6.951-1.886 9.555-2.857zm-34.025-28.395h2.472l-4.676 3.704 2.204-3.704zm-8.23 0l2.285 3.476-4.39-3.476h2.105zm1.016-3.227l2.174 2.277h-5.227l3.053-2.277zm5.403-.157l-2.12 2.222-2.12-2.222h4.24zm4.217 2.434h-5.227l2.173-2.277 3.054 2.277zm-6.357 5.732l-3.142-4.782h5.989l-2.847 4.782z"/>
        </g>
    </g>
</svg>
