<svg xmlns="http://www.w3.org/2000/svg" xmlns:xlink="http://www.w3.org/1999/xlink" width="262" height="180" viewBox="0 0 262 180">
    <defs>
        <path id="a" d="M0 0h360v240H0z"/>
        <path id="c" d="M241.722 170.009a52.4 52.4 0 0 0-1.566 2.477l-4.017 6.78-.584.985h-6.535l.584-.985 5.943-10.032a50.33 50.33 0 0 1 4.458-6.344 50.533 50.533 0 0 1 10.891-9.862c.28-.188.56-.376.844-.558l1.824 4.94c-.274.21-.544.423-.814.638a53.025 53.025 0 0 0-11.028 11.96zm-120.104.534V96.509h1.289v74.034h-1.289zm95.847-134.265c-4.897-1.72-11.927-1.72-17.094.004l-.408-1.223c5.5-1.834 12.705-1.832 17.929.003l-.427 1.216zm-6.28 9.028c-4.065.917-8.83.924-12.764.022 4.065-.916 8.83-.923 12.763-.022m-6.484 1.997c-3.143 0-6.253-.459-8.866-1.378l-1.776-.624 1.786-.595c.343-.115.693-.222 1.05-.322.044-.013.09-.023.134-.035.313-.086.63-.17.95-.245.051-.012.104-.02.156-.032.316-.073.635-.142.958-.204l.127-.022c.334-.062.671-.12 1.011-.171l.047-.006c.368-.055.737-.103 1.11-.145l.02-.001c.38-.042.764-.078 1.148-.106l.039-.002c.378-.027.758-.048 1.138-.062l.045-.001c.378-.013.756-.02 1.133-.02h.05c.376.001.752.008 1.126.021l.082.005c.362.014.724.033 1.084.06.046.003.092.01.138.013.34.026.678.057 1.013.095.07.007.138.019.207.027.31.037.62.076.925.123.095.014.186.033.28.049.278.045.555.09.827.144.119.023.233.052.351.077.243.051.487.101.725.159.144.035.282.076.424.113.206.054.415.106.617.166.167.048.326.104.488.156.168.054.339.104.502.162l2.442.662-.337 1.244-2.278-.618c-.144.046-.293.086-.439.13-.17.052-.34.106-.514.154-.182.05-.368.095-.553.142-.173.044-.344.09-.52.13-.192.045-.387.084-.581.124-.173.036-.345.075-.52.107-.202.038-.407.07-.611.104-.171.029-.34.06-.513.085-.213.032-.429.057-.644.084-.166.021-.33.045-.498.064-.229.024-.46.043-.69.063-.155.014-.31.03-.465.042-.258.018-.517.03-.776.042-.13.006-.258.016-.387.02-.388.015-.776.022-1.165.022zm-.601 122.69l-.957 1.616-4.536 7.657-.584.985h-6.535l.583-.985 9.273-15.651.957-1.616 6.383-10.774a50.41 50.41 0 0 1 3.606-5.284c.284-.363.574-.722.867-1.077a50.465 50.465 0 0 1 13.92-11.734 50.384 50.384 0 0 1 14.44-5.5c.325-.07.65-.135.976-.198l1.227 3.321c-.315.094-.627.195-.94.294h-.002a52.715 52.715 0 0 0-10.198 4.456 52.898 52.898 0 0 0-13.646 11.186 52.785 52.785 0 0 0-5.641 7.789l-9.193 15.516zm28.402-14.458a52.85 52.85 0 0 0-5.777 7.947l-9.352 15.784-.583.985h-6.536l.584-.985 11.278-19.037a50.404 50.404 0 0 1 5.966-8.092 50.424 50.424 0 0 1 12.427-10.003 50.084 50.084 0 0 1 5.387-2.648c.303-.128.603-.26.909-.38l1.533 4.151c-.295.15-.587.304-.88.459h-.002c-.485.257-.967.519-1.444.79a52.869 52.869 0 0 0-12.645 10.072c-.292.316-.58.634-.865.957zm5.28 6.204a52.795 52.795 0 0 0-4.341 6.245l-6.684 11.282-.584.985h-6.535l.583-.985 8.611-14.535a50.38 50.38 0 0 1 6.278-8.43 50.439 50.439 0 0 1 12.115-9.665c.36-.205.723-.404 1.087-.6l.003-.001c.291-.157.584-.311.878-.463l1.68 4.548c-.285.179-.566.365-.847.549l-.003.001a52.985 52.985 0 0 0-12.24 11.07zm-11.853-10.871a52.856 52.856 0 0 0-5.92 8.112l-12.019 20.286-.584.985h-6.535l.583-.985 2.473-4.173.957-1.615 10.516-17.75a50.326 50.326 0 0 1 5.154-7.167 50.45 50.45 0 0 1 13.24-10.929 50.252 50.252 0 0 1 9.834-4.283h.001c.314-.099.627-.199.942-.291l1.384 3.748c-.305.121-.609.246-.911.372h-.002a52.61 52.61 0 0 0-5.746 2.827 52.881 52.881 0 0 0-12.468 9.88c-.303.324-.604.65-.899.983zm35.903 28.924l.169.459h-4.727a50.503 50.503 0 0 1 3.172-4.211l1.386 3.752zm-89.997-.526H1.294A32.793 32.793 0 0 1 7.672 160.4a32.784 32.784 0 0 1 16.676-11.965l52.96-16.735c8.161-2.58 15.15-7.593 20.209-14.5 5.06-6.906 7.734-15.082 7.734-23.644v-.046c0-10.279-1.319-20.329-3.918-29.976 1 2.16 2.095 4.233 3.274 6.168 4.736 7.777 10.808 13.328 17.436 13.449h.441c6.628-.12 12.7-5.672 17.437-13.449a61.991 61.991 0 0 0 3.273-6.168c-2.6 9.648-3.918 19.698-3.918 29.976v.046c0 8.562 2.675 16.738 7.734 23.644 5.06 6.907 12.048 11.92 20.21 14.5l12.77 4.036 2.52 25.536-10.675 17.995zm-71.451-96.401c0 1.07-.87 1.94-1.94 1.94-1.07 0-1.94-.87-1.94-1.94 0-1.07.87-1.94 1.94-1.94 1.07 0 1.94.87 1.94 1.94zm-7.302-34.37c-1.206-5.45-.472-9.887.99-10.229.337 5.723 1.665 12.162 3.83 18.448.074.216.143.435.216.652-1.492-.007-3.876-3.634-5.036-8.87zm58.363 0c-1.16 5.238-3.541 8.87-5.037 8.871.074-.217.143-.436.217-.652 2.164-6.286 3.492-12.725 3.83-18.448 1.462.342 2.196 4.78.99 10.23zm28.115 69.764l-.024-.239-1.194-1.137a22.047 22.047 0 0 1-6.808-15.893c0-3.681-.614-7.31-1.823-10.786l-7.655-21.993a3.096 3.096 0 0 1 1.317-3.66l10.435 29.984 1.217-.424-10.67-30.657-.248-.713a3.097 3.097 0 0 1 1.316-3.66l3.87 11.116 1.974 5.676 2.613 7.506 3.455 9.928 1.217-.424-3.455-9.928-2.612-7.506-5.523-15.868-.338-.97a3.098 3.098 0 0 1 1.317-3.66l2.004 5.758 2.134 6.132 6.454 18.544 2.33 6.693 1.217-.423-2.33-6.694-6.454-18.544-2.134-6.132a3.07 3.07 0 0 1 .135-2.363 3.07 3.07 0 0 1 1.18-1.298l1.187 3.41.858 2.464 3.79 10.89 2.741 7.876 1.435 4.122 1.902 5.464 1.217-.424-1.902-5.464-1.418-4.074-1.1-6.266c-.092-.526-.193-1.132-.223-1.665l-.643.035.643-.036c-.057-1.024.163-1.499.575-1.733l.201.705 3.713 13.05 1.422 5.001 3.297 23.979.004.027 5.662 25.16a51.904 51.904 0 0 0-2.265 3.48L183.62 159.4l-4.061-41.141zm-5.006-61.785c-.12.406-.237.806-.348 1.195l-.432-1.24.78.045zm2.644 4.664c-.36-.17-.76-.23-1.16-.166-.214.034-.42.104-.612.201l-.479-1.373c.282-1.033.586-2.101.928-3.25l1.77.1c.083.027.325.128.473.457.205.456.33 1.572-.92 4.031zm-1.474-8.487l-.001.001 2.138-1.976c1.907-1.765 3.932-3.64 5.875-5.443l1.91-1.773 1.883-1.753c3.266-3.043 5.772-5.401 6.215-5.88.931-1.007 1.173-2.68.575-3.976a3.656 3.656 0 0 0-.072-.147l-.023-.042a3.095 3.095 0 0 0-.185-.3l-.017-.026a3.345 3.345 0 0 0-.285-.35l-.014-.016a3.167 3.167 0 0 0-.323-.299l-.073-.057a4.205 4.205 0 0 0-.18-.13l-.05-.033a3.78 3.78 0 0 0-.464-.255l-.012-.006a4.352 4.352 0 0 0-.84-.283l-.003-.001c-.048-.011-.093-.024-.142-.033 4.474-4.015 9.798-6.655 15.482-7.666.104-.012.211-.019.316-.028.126-.011.25-.025.378-.033.065-.004.132-.004.198-.007.172-.009.344-.017.519-.019h.07c3.35-.022 7.225 1.062 10.872 3.075 3.729 2.057 6.594 4.762 7.298 6.89.377 1.136.098 1.93-.878 2.495-.557.322-1.032.646-1.436.965-.219.174-.417.346-.596.517-1.254 1.194-1.577 2.308-1.584 3.128-.006.717.219 1.407.653 2.036.144.21.313.413.503.609.346.354.767.683 1.257.978 1.061.64 1.606 1.802 1.357 2.893-.25 1.096-1.218 1.8-2.656 1.934-.216.02-.425.046-.63.076-.057.008-.111.02-.168.029-.145.023-.29.047-.429.075-.064.013-.124.029-.187.042-.127.028-.254.056-.376.088-.07.018-.136.039-.204.058-.109.03-.219.06-.324.095-.081.025-.158.054-.236.081-.086.03-.173.059-.255.09l-.293.12-.163.068a8.694 8.694 0 0 0-.374.178l-.045.022a8.805 8.805 0 0 0-.59.331l-.112.071a8.268 8.268 0 0 0-2.142 1.939c-1.134 1.474-1.429 2.877-1.44 2.936l-.3 1.475 1.273-.8c3.876-2.437 9.04-3.806 10.254-1.874.49.78.18 2.094-.85 3.606-1.148 1.688-3.026 3.4-5.288 4.821-1.358.854-2.797 1.558-4.16 2.037l-.005.001-.017.007.1.29h-.002l.11.317.105.328.003-.001.091.288c1.605-.51 3.107.39 3.764 1.541.023.04.044.08.065.119.62 1.198.358 2.514-.708 3.584v.001a.012.012 0 0 0-.003.003l-.002.001a5.203 5.203 0 0 1-.196.186c-1.092.976-1.88 2.479-1.88 3.997 0 .814.226 1.633.756 2.376.761 1.072 1.8 1.47 2.847 1.47a5 5 0 0 0 1.722-.33 10.7 10.7 0 0 0 .451 1.592l13.742 37.218.331.897a52.237 52.237 0 0 0-25.003 6.822 52.13 52.13 0 0 0-9.089 6.575l-9.507-46.559c4.075-1.038 18.074-4.857 18.224-4.898l-.34-1.244c-.157.044-15.738 4.294-18.775 5.037-.63.122-1.262.247-1.891.371-1.565.31-3.172.625-4.708.878l-3.459-12.153c.418-.475.783-.995 1.135-1.503.578-.835 1.124-1.624 1.896-2.225l.655-.51-.656-.508c-.435-.338-.997-1.221-1.592-2.157-1.263-1.986-2.695-4.238-4.687-4.497a2.817 2.817 0 0 0-.941.037c.71-1.733.839-3.087.379-4.037-.464-.96-1.325-1.128-1.421-1.144l-2.404-.14-2.124-.122-.063-.18 2.47-2.281zm6.123-10.072c1.499-2.641 3.119-5.09 4.819-7.285 1.485.22 2.86.551 4.092.984l.427-1.216a22.788 22.788 0 0 0-3.597-.924 41.433 41.433 0 0 1 2.796-3.085h.156a4.826 4.826 0 0 1 .5.034c.08.01.16.02.237.032.075.014.145.03.216.047.075.018.15.035.22.056.066.02.127.045.189.068.067.025.136.05.2.08.058.027.11.059.165.09.058.033.119.064.172.1.054.037.101.08.15.12.047.038.096.073.138.114.054.053.1.112.147.17.03.036.063.068.09.107a2.045 2.045 0 0 1 .311.669c.048.178.074.359.08.539.024.66-.212 1.3-.557 1.673a3.458 3.458 0 0 1-.17.175l-.04.04-.087.085-.047.046c-.034.035-.07.07-.109.107a7.823 7.823 0 0 0-.048.047l-.132.127-.06.06a61.626 61.626 0 0 1-.21.2l-.182.174-.06.057-.217.207-.045.043-.27.255-.021.02c-.728.69-1.676 1.58-2.833 2.661l-.065.061-.437.409-.08.073-.44.41-.109.102-.44.411-.124.116-.378.352-.241.225-.314.291-.275.256-.45.419-.164.152-.231.215-2.067 1.919-.96.89-.057.052-2.19 2.03a69.544 69.544 0 0 1 2.602-5.06zm20.58 88.933a52.273 52.273 0 0 0-5.58 6.254l-5.402-24.011-3.3-23.997-1.256-4.439a161.67 161.67 0 0 0 4.604-.861l1.274-.251 9.66 47.305zm-17.665 39.446l13.215-22.305.957-1.616.926-1.563a52.705 52.705 0 0 1 1.836-2.88c.255-.373.518-.74.782-1.105a52.947 52.947 0 0 1 16.67-14.99 52.85 52.85 0 0 1 19.547-6.51c.334-.043.67-.085 1.005-.121l-1.031-2.792-.4-1.33-13.51-37.218c-1.301-3.526-.386-7.513 2.334-10.16l.042-.042c12.017-11.738 13.39-29.896 3.061-40.477-5.838-5.98-14.322-8.5-23.278-6.916-6.328 1.12-12.222 4.178-17.065 8.842h-.006l-.17.166-.007.007-1.2 1.173.056-.003a45.848 45.848 0 0 0-2.416 2.798l-.221.28-.009.01-.696.886.013.002a63.56 63.56 0 0 0-4.47 6.85 70.351 70.351 0 0 0-3.844 7.88c-3.303 3.055-5.8 5.357-5.8 5.357l-1.118 1.03.932.054a4.41 4.41 0 0 0-.755 1.092l-1.43-4.11-.609.212a4.388 4.388 0 0 0-2.935 4.299 4.388 4.388 0 0 0-2.278 5.407l.054.154a4.385 4.385 0 0 0-2.105 5.316l7.654 21.993a31.45 31.45 0 0 1 1.752 10.362 23.344 23.344 0 0 0 7.208 16.826l.848.808 1.551 15.715-12.244-3.87c-7.9-2.496-14.662-7.348-19.559-14.031a38.47 38.47 0 0 1-7.484-22.883v-.046c0-12.046 1.827-23.773 5.428-34.894.14.028.28.044.42.044 2.668 0 5.195-4.939 6.29-9.885 1.159-5.237.86-11.14-1.979-11.77a2.254 2.254 0 0 0-.209-.032c.018-.513.03-1.022.03-1.522 0-19.146-12.688-34.722-28.282-34.722-15.593 0-28.28 15.576-28.28 34.722 0 .5.011 1.009.028 1.522-.069.009-.139.018-.208.033-2.838.629-3.138 6.532-1.978 11.769 1.051 4.752 3.424 9.493 5.975 9.86V79.7a3.235 3.235 0 0 0-2.584 3.165 3.232 3.232 0 0 0 3.229 3.229 3.232 3.232 0 0 0 3.227-3.229 3.235 3.235 0 0 0-2.583-3.165V60.39c3.232 10.59 4.873 21.711 4.873 33.12v.045a38.47 38.47 0 0 1-7.484 22.883c-4.896 6.683-11.66 11.535-19.558 14.032l-52.96 16.735a34.062 34.062 0 0 0-17.328 12.432A34.084 34.084 0 0 0 0 179.911v.644l171.25-.304h8.005l.584-.985 3.812-6.434 1.11-1.874zm16.755-12.442l5.06-8.54a52.723 52.723 0 0 1 3.233-4.818A52.929 52.929 0 0 1 225.863 131a52.801 52.801 0 0 1 14.795-5.692c.325-.072.649-.14.974-.206l-1.057-2.861c-.336.032-.673.07-1.009.108a50.4 50.4 0 0 0-19.206 6.278 50.476 50.476 0 0 0-16.212 14.74 50.239 50.239 0 0 0-2.181 3.355l-2.25 3.798-.957 1.616-13.592 22.941-1.11 1.874-1.371 2.314-.584.985h6.536l.583-.985 11.337-19.135.957-1.615zm57.959 14.898l-2.126-5.756c-.26.25-.512.509-.767.765a50.445 50.445 0 0 0-7.603 9.814l-1.192 2.014h6.56a52.806 52.806 0 0 1 5.128-6.837m-3.824-7.512c.258-.249.512-.5.775-.744l-1.972-5.338a50.53 50.53 0 0 0-10.918 11.88 50.881 50.881 0 0 0-.975 1.546c-.1.163-.2.325-.298.49l-3.276 5.53-.584.985h6.536l1.933-3.263a52.88 52.88 0 0 1 8.78-11.086"/>
    </defs>
    <g fill="none" fill-rule="evenodd" transform="translate(-49 -60)">
        <mask id="b" fill="#fff">
            <use xlink:href="#a"/>
        </mask>
        <g mask="url(#b)">
            <use fill="#1C1794" transform="translate(49 60)" xlink:href="#c"/>
        </g>
    </g>
</svg>
